<svg xmlns="http://www.w3.org/2000/svg" viewBox="0 0 900 560" role="img" aria-labelledby="title desc">
  <title id="title">Dream city AI artwork placeholder</title>
  <desc id="desc">A colorful geometric city with paper cutout shadows.</desc>
  <rect width="900" height="560" fill="#FFF7D6"/>
  <circle cx="700" cy="120" r="118" fill="#FBBF24" stroke="#1E293B" stroke-width="8"/>
  <path d="M0 454 C120 398 201 497 323 428 C452 354 560 444 680 390 C779 345 832 368 900 323 L900 560 L0 560Z" fill="#8B5CF6" stroke="#1E293B" stroke-width="8"/>
  <rect x="92" y="232" width="126" height="224" rx="24" fill="#34D399" stroke="#1E293B" stroke-width="8"/>
  <rect x="252" y="150" width="156" height="306" rx="20" fill="#F472B6" stroke="#1E293B" stroke-width="8"/>
  <rect x="440" y="202" width="120" height="254" rx="18" fill="#FFFFFF" stroke="#1E293B" stroke-width="8"/>
  <rect x="602" y="252" width="188" height="204" rx="28" fill="#8B5CF6" stroke="#1E293B" stroke-width="8"/>
  <g fill="#1E293B">
    <circle cx="130" cy="280" r="10"/><circle cx="178" cy="280" r="10"/><circle cx="130" cy="332" r="10"/><circle cx="178" cy="332" r="10"/>
    <circle cx="298" cy="204" r="10"/><circle cx="360" cy="204" r="10"/><circle cx="298" cy="268" r="10"/><circle cx="360" cy="268" r="10"/>
    <circle cx="480" cy="258" r="10"/><circle cx="522" cy="258" r="10"/><circle cx="480" cy="318" r="10"/><circle cx="522" cy="318" r="10"/>
  </g>
  <path d="M130 126 L178 66 L226 126Z" fill="#34D399" stroke="#1E293B" stroke-width="8"/>
  <path d="M714 292 C760 262 800 299 780 344 C756 397 680 383 675 329 C672 312 686 303 714 292Z" fill="#FFFFFF" stroke="#1E293B" stroke-width="8"/>
  <g stroke="#1E293B" stroke-width="7" stroke-linecap="round" fill="none">
    <path d="M75 86 C115 42 157 124 205 80"/>
    <path d="M605 76 L650 42 L695 76 L740 42"/>
  </g>
</svg>
